<svg width="39" height="22" viewBox="0 0 39 22" fill="none" xmlns="http://www.w3.org/2000/svg">
<rect y="10" width="2" height="2" fill="#B6AB94"/>
<rect y="12" width="2" height="2" fill="#B6AB94"/>
<rect x="2" y="14" width="2" height="2" fill="#B6AB94"/>
<rect width="2" height="2" transform="matrix(-1 0 0 1 6 4)" fill="#B6AB94"/>
<rect width="2" height="2" transform="matrix(-1 0 0 1 8 2)" fill="#B6AB94"/>
<rect width="2" height="2" transform="matrix(-1 0 0 1 10 0)" fill="#B6AB94"/>
<rect x="4" y="16" width="2" height="2" fill="#B6AB94"/>
<rect width="2" height="2" transform="matrix(-1 0 0 1 4 6)" fill="#B6AB94"/>
<rect x="6" y="18" width="2" height="2" fill="#B6AB94"/>
<rect x="8" y="20" width="2" height="2" fill="#B6AB94"/>
<rect width="2" height="2" transform="matrix(-1 0 0 1 2 8)" fill="#B6AB94"/>
<rect x="2" y="10" width="37" height="2" fill="#B6AB94"/>
</svg>
