<svg width="22" height="16" viewBox="0 0 22 16" fill="none" xmlns="http://www.w3.org/2000/svg">
<path d="M6.20272 3.93709V15.9997H2.26562V7.6219C2.26562 3.41244 5.67807 0 9.88753 0H12.0246L17.1763 5.15173L14.412 7.91607L10.433 3.93709H6.20272Z" fill="#212020"/>
<path d="M17.1762 12.0629V0.000329018H21.1133V8.3781C21.1133 12.5876 17.7008 16 13.4914 16H11.3543L6.20259 10.8483L8.96694 8.08393L12.9459 12.0629H17.1762Z" fill="#212020"/>
<path d="M0.913106 1.82621C0.735771 1.82621 0.577192 1.78785 0.43737 1.71112C0.299253 1.63438 0.191829 1.52696 0.115097 1.38884C0.0383658 1.24902 0 1.09044 0 0.913106C0 0.735771 0.0383658 0.578045 0.115097 0.439928C0.191829 0.300106 0.299253 0.191829 0.43737 0.115097C0.577192 0.0383658 0.735771 0 0.913106 0C1.09044 0 1.24817 0.0383658 1.38628 0.115097C1.52611 0.191829 1.63438 0.300106 1.71112 0.439928C1.78785 0.578045 1.82621 0.735771 1.82621 0.913106C1.82621 1.09044 1.78785 1.24902 1.71112 1.38884C1.63438 1.52696 1.52611 1.63438 1.38628 1.71112C1.24817 1.78785 1.09044 1.82621 0.913106 1.82621ZM0.913106 1.64717C1.05122 1.64717 1.17314 1.61648 1.27886 1.55509C1.38628 1.492 1.46984 1.40504 1.52952 1.29421C1.5892 1.18337 1.61904 1.05634 1.61904 0.913106C1.61904 0.769874 1.5892 0.642841 1.52952 0.532006C1.46984 0.421171 1.38628 0.335061 1.27886 0.273676C1.17314 0.210586 1.05122 0.17904 0.913106 0.17904C0.774989 0.17904 0.652219 0.210586 0.544795 0.273676C0.439075 0.335061 0.356376 0.421171 0.296696 0.532006C0.237015 0.642841 0.207175 0.769874 0.207175 0.913106C0.207175 1.05634 0.237015 1.18337 0.296696 1.29421C0.356376 1.40504 0.439075 1.492 0.544795 1.55509C0.652219 1.61648 0.774989 1.64717 0.913106 1.64717ZM0.60618 0.416908C0.635167 0.415203 0.68888 0.414351 0.767316 0.414351C0.849163 0.414351 0.904581 0.415203 0.933568 0.416908C1.0427 0.420319 1.12454 0.446749 1.17911 0.496198C1.23538 0.545647 1.26351 0.613853 1.26351 0.700816C1.26351 0.769021 1.24561 0.828702 1.2098 0.879856C1.1757 0.93101 1.1254 0.964261 1.0589 0.979607C1.08447 0.996659 1.10494 1.01712 1.12028 1.04099C1.13733 1.06486 1.16717 1.11261 1.2098 1.18422L1.30188 1.3428L1.32746 1.38884H1.08447L0.92078 1.08192C0.903728 1.04952 0.888382 1.02991 0.874741 1.02309C0.861099 1.01456 0.838932 1.0103 0.80824 1.0103V1.38884H0.60618V0.416908ZM0.900318 0.846606C0.949767 0.846606 0.988133 0.83467 1.01542 0.810798C1.0444 0.78522 1.0589 0.751117 1.0589 0.708489C1.0589 0.628347 1.00945 0.588276 0.910549 0.588276H0.80824V0.846606H0.900318Z" fill="#212020"/>
</svg>
