<svg width="40" height="31" viewBox="0 0 40 31" fill="none" xmlns="http://www.w3.org/2000/svg">
<path d="M7.46311 7.79856V30.6643H0V7.95735C0 3.74789 3.41244 0.335449 7.6219 0.335449H18.499L28.2646 10.101L23.0245 15.3411L15.482 7.79856H7.46311Z" fill="black"/>
<path d="M28.2646 23.2014V0.335726H35.7277V23.0426C35.7277 27.2521 32.3152 30.6646 28.1058 30.6646H17.2287L7.46312 20.899L12.7032 15.6589L20.2457 23.2014H28.2646Z" fill="black"/>
<path d="M38.2691 3.7972C37.933 3.7972 37.6324 3.72447 37.3673 3.57902C37.1055 3.43357 36.9019 3.22994 36.7564 2.96813C36.611 2.70308 36.5383 2.40248 36.5383 2.06632C36.5383 1.73017 36.611 1.43119 36.7564 1.16937C36.9019 0.904327 37.1055 0.699078 37.3673 0.553627C37.6324 0.408175 37.933 0.335449 38.2691 0.335449C38.6053 0.335449 38.9043 0.408175 39.1661 0.553627C39.4311 0.699078 39.6364 0.904327 39.7818 1.16937C39.9273 1.43119 40 1.73017 40 2.06632C40 2.40248 39.9273 2.70308 39.7818 2.96813C39.6364 3.22994 39.4311 3.43357 39.1661 3.57902C38.9043 3.72447 38.6053 3.7972 38.2691 3.7972ZM38.2691 3.45781C38.5309 3.45781 38.762 3.39963 38.9624 3.28327C39.1661 3.16368 39.3245 2.99883 39.4376 2.78874C39.5507 2.57864 39.6073 2.33783 39.6073 2.06632C39.6073 1.79481 39.5507 1.55401 39.4376 1.34391C39.3245 1.13382 39.1661 0.970588 38.9624 0.854227C38.762 0.734633 38.5309 0.674837 38.2691 0.674837C38.0073 0.674837 37.7746 0.734633 37.571 0.854227C37.3706 0.970588 37.2138 1.13382 37.1007 1.34391C36.9875 1.55401 36.931 1.79481 36.931 2.06632C36.931 2.33783 36.9875 2.57864 37.1007 2.78874C37.2138 2.99883 37.3706 3.16368 37.571 3.28327C37.7746 3.39963 38.0073 3.45781 38.2691 3.45781ZM37.6873 1.12574C37.7423 1.1225 37.8441 1.12089 37.9928 1.12089C38.1479 1.12089 38.253 1.1225 38.3079 1.12574C38.5148 1.1322 38.6699 1.1823 38.7734 1.27604C38.88 1.36977 38.9334 1.49906 38.9334 1.66391C38.9334 1.7932 38.8994 1.90633 38.8315 2.0033C38.7669 2.10026 38.6715 2.16329 38.5455 2.19238C38.594 2.22471 38.6328 2.26349 38.6618 2.30874C38.6942 2.354 38.7507 2.4445 38.8315 2.58025L39.0061 2.88085L39.0546 2.96813H38.594L38.2837 2.38632C38.2514 2.32491 38.2223 2.28773 38.1964 2.27481C38.1705 2.25864 38.1285 2.25056 38.0703 2.25056V2.96813H37.6873V1.12574ZM38.2449 1.94027C38.3386 1.94027 38.4113 1.91764 38.4631 1.87239C38.518 1.82391 38.5455 1.75926 38.5455 1.67845C38.5455 1.52654 38.4518 1.45058 38.2643 1.45058H38.0703V1.94027H38.2449Z" fill="black"/>
</svg>
